<?xml version="1.0" encoding="utf-8" standalone="no"?>
<!DOCTYPE svg PUBLIC "-//W3C//DTD SVG 1.1//EN"
  "http://www.w3.org/Graphics/SVG/1.1/DTD/svg11.dtd">
<svg xmlns:xlink="http://www.w3.org/1999/xlink" width="1000.3575pt" height="567.67pt" viewBox="0 0 1000.3575 567.67" xmlns="http://www.w3.org/2000/svg" version="1.1">
 <metadata>
  <rdf:RDF xmlns:dc="http://purl.org/dc/elements/1.1/" xmlns:cc="http://creativecommons.org/ns#" xmlns:rdf="http://www.w3.org/1999/02/22-rdf-syntax-ns#">
   <cc:Work>
    <dc:type rdf:resource="http://purl.org/dc/dcmitype/StillImage"/>
    <dc:date>2025-11-20T11:16:52.590688</dc:date>
    <dc:format>image/svg+xml</dc:format>
    <dc:creator>
     <cc:Agent>
      <dc:title>Matplotlib v3.10.7, https://matplotlib.org/</dc:title>
     </cc:Agent>
    </dc:creator>
   </cc:Work>
  </rdf:RDF>
 </metadata>
 <defs>
  <style type="text/css">*{stroke-linejoin: round; stroke-linecap: butt}</style>
 </defs>
 <g id="figure_1">
  <g id="patch_1">
   <path d="M 0 567.67 
L 1000.3575 567.67 
L 1000.3575 0 
L 0 0 
z
" style="fill: #ffffff"/>
  </g>
  <g id="axes_1">
   <g id="patch_2">
    <path d="M 47.0075 524.31875 
L 993.1575 524.31875 
L 993.1575 39.99 
L 47.0075 39.99 
z
" style="fill: #ffffff"/>
   </g>
   <g id="matplotlib.axis_1">
    <g id="xtick_1">
     <g id="line2d_1">
      <path d="M 47.0075 524.31875 
L 47.0075 39.99 
" clip-path="url(#pa99e1d1863)" style="fill: none; stroke-dasharray: 0.8,1.32; stroke-dashoffset: 0; stroke: #b0b0b0; stroke-opacity: 0.3; stroke-width: 0.8"/>
     </g>
     <g id="line2d_2">
      <defs>
       <path id="mc318c5010c" d="M 0 0 
L 0 3.5 
" style="stroke: #000000; stroke-width: 0.8"/>
      </defs>
      <g>
       <use xlink:href="#mc318c5010c" x="47.0075" y="524.31875" style="stroke: #000000; stroke-width: 0.8"/>
      </g>
     </g>
     <g id="text_1">
      <!-- 0 -->
      <g transform="translate(44.075469 539.3125) scale(0.1 -0.1)">
       <defs>
        <path id="MicrosoftYaHei-30" d="M 284 2325 
Q 284 3606 709 4264 
Q 1134 4922 1941 4922 
Q 3478 4922 3478 2441 
Q 3478 1216 3045 567 
Q 2613 -81 1831 -81 
Q 1094 -81 689 534 
Q 284 1150 284 2325 
z
M 909 2353 
Q 909 425 1888 425 
Q 2850 425 2850 2384 
Q 2850 4413 1906 4413 
Q 909 4413 909 2353 
z
" transform="scale(0.015625)"/>
       </defs>
       <use xlink:href="#MicrosoftYaHei-30"/>
      </g>
     </g>
    </g>
    <g id="xtick_2">
     <g id="line2d_3">
      <path d="M 176.617089 524.31875 
L 176.617089 39.99 
" clip-path="url(#pa99e1d1863)" style="fill: none; stroke-dasharray: 0.8,1.32; stroke-dashoffset: 0; stroke: #b0b0b0; stroke-opacity: 0.3; stroke-width: 0.8"/>
     </g>
     <g id="line2d_4">
      <g>
       <use xlink:href="#mc318c5010c" x="176.617089" y="524.31875" style="stroke: #000000; stroke-width: 0.8"/>
      </g>
     </g>
     <g id="text_2">
      <!-- 250 -->
      <g transform="translate(167.820995 539.3125) scale(0.1 -0.1)">
       <defs>
        <path id="MicrosoftYaHei-32" d="M 2666 3572 
Q 2666 3963 2419 4186 
Q 2172 4409 1747 4409 
Q 1447 4409 1140 4256 
Q 834 4103 569 3819 
L 569 4413 
Q 806 4659 1107 4790 
Q 1409 4922 1816 4922 
Q 2472 4922 2872 4570 
Q 3272 4219 3272 3619 
Q 3272 3084 3026 2693 
Q 2781 2303 2188 1894 
Q 1581 1475 1376 1294 
Q 1172 1113 1090 947 
Q 1009 781 1009 544 
L 3416 544 
L 3416 0 
L 372 0 
L 372 241 
Q 372 659 486 951 
Q 600 1244 862 1520 
Q 1125 1797 1681 2184 
Q 2250 2584 2458 2886 
Q 2666 3188 2666 3572 
z
" transform="scale(0.015625)"/>
        <path id="MicrosoftYaHei-35" d="M 3294 1494 
Q 3294 784 2823 350 
Q 2353 -84 1559 -84 
Q 878 -84 544 119 
L 544 744 
Q 1034 425 1544 425 
Q 2050 425 2361 704 
Q 2672 984 2672 1447 
Q 2672 1909 2348 2167 
Q 2025 2425 1434 2425 
Q 978 2425 613 2384 
L 791 4841 
L 3053 4841 
L 3053 4303 
L 1306 4303 
L 1206 2931 
L 1647 2950 
Q 2416 2950 2855 2567 
Q 3294 2184 3294 1494 
z
" transform="scale(0.015625)"/>
       </defs>
       <use xlink:href="#MicrosoftYaHei-32"/>
       <use xlink:href="#MicrosoftYaHei-35" transform="translate(58.642578 0)"/>
       <use xlink:href="#MicrosoftYaHei-30" transform="translate(117.285156 0)"/>
      </g>
     </g>
    </g>
    <g id="xtick_3">
     <g id="line2d_5">
      <path d="M 306.226678 524.31875 
L 306.226678 39.99 
" clip-path="url(#pa99e1d1863)" style="fill: none; stroke-dasharray: 0.8,1.32; stroke-dashoffset: 0; stroke: #b0b0b0; stroke-opacity: 0.3; stroke-width: 0.8"/>
     </g>
     <g id="line2d_6">
      <g>
       <use xlink:href="#mc318c5010c" x="306.226678" y="524.31875" style="stroke: #000000; stroke-width: 0.8"/>
      </g>
     </g>
     <g id="text_3">
      <!-- 500 -->
      <g transform="translate(297.430584 539.3125) scale(0.1 -0.1)">
       <use xlink:href="#MicrosoftYaHei-35"/>
       <use xlink:href="#MicrosoftYaHei-30" transform="translate(58.642578 0)"/>
       <use xlink:href="#MicrosoftYaHei-30" transform="translate(117.285156 0)"/>
      </g>
     </g>
    </g>
    <g id="xtick_4">
     <g id="line2d_7">
      <path d="M 435.836267 524.31875 
L 435.836267 39.99 
" clip-path="url(#pa99e1d1863)" style="fill: none; stroke-dasharray: 0.8,1.32; stroke-dashoffset: 0; stroke: #b0b0b0; stroke-opacity: 0.3; stroke-width: 0.8"/>
     </g>
     <g id="line2d_8">
      <g>
       <use xlink:href="#mc318c5010c" x="435.836267" y="524.31875" style="stroke: #000000; stroke-width: 0.8"/>
      </g>
     </g>
     <g id="text_4">
      <!-- 750 -->
      <g transform="translate(427.040173 539.3125) scale(0.1 -0.1)">
       <defs>
        <path id="MicrosoftYaHei-37" d="M 3422 4463 
Q 2659 3131 2223 1998 
Q 1788 866 1684 0 
L 1047 0 
Q 1163 853 1594 1947 
Q 2025 3041 2747 4300 
L 347 4300 
L 347 4841 
L 3422 4841 
L 3422 4463 
z
" transform="scale(0.015625)"/>
       </defs>
       <use xlink:href="#MicrosoftYaHei-37"/>
       <use xlink:href="#MicrosoftYaHei-35" transform="translate(58.642578 0)"/>
       <use xlink:href="#MicrosoftYaHei-30" transform="translate(117.285156 0)"/>
      </g>
     </g>
    </g>
    <g id="xtick_5">
     <g id="line2d_9">
      <path d="M 565.445856 524.31875 
L 565.445856 39.99 
" clip-path="url(#pa99e1d1863)" style="fill: none; stroke-dasharray: 0.8,1.32; stroke-dashoffset: 0; stroke: #b0b0b0; stroke-opacity: 0.3; stroke-width: 0.8"/>
     </g>
     <g id="line2d_10">
      <g>
       <use xlink:href="#mc318c5010c" x="565.445856" y="524.31875" style="stroke: #000000; stroke-width: 0.8"/>
      </g>
     </g>
     <g id="text_5">
      <!-- 1000 -->
      <g transform="translate(553.717731 539.3125) scale(0.1 -0.1)">
       <defs>
        <path id="MicrosoftYaHei-31" d="M 1781 0 
L 1781 4141 
Q 1638 3997 1295 3819 
Q 953 3641 663 3569 
L 663 4169 
Q 1047 4275 1484 4508 
Q 1922 4741 2156 4947 
L 2388 4947 
L 2388 0 
L 1781 0 
z
" transform="scale(0.015625)"/>
       </defs>
       <use xlink:href="#MicrosoftYaHei-31"/>
       <use xlink:href="#MicrosoftYaHei-30" transform="translate(58.642578 0)"/>
       <use xlink:href="#MicrosoftYaHei-30" transform="translate(117.285156 0)"/>
       <use xlink:href="#MicrosoftYaHei-30" transform="translate(175.927734 0)"/>
      </g>
     </g>
    </g>
    <g id="xtick_6">
     <g id="line2d_11">
      <path d="M 695.055445 524.31875 
L 695.055445 39.99 
" clip-path="url(#pa99e1d1863)" style="fill: none; stroke-dasharray: 0.8,1.32; stroke-dashoffset: 0; stroke: #b0b0b0; stroke-opacity: 0.3; stroke-width: 0.8"/>
     </g>
     <g id="line2d_12">
      <g>
       <use xlink:href="#mc318c5010c" x="695.055445" y="524.31875" style="stroke: #000000; stroke-width: 0.8"/>
      </g>
     </g>
     <g id="text_6">
      <!-- 1250 -->
      <g transform="translate(683.32732 539.3125) scale(0.1 -0.1)">
       <use xlink:href="#MicrosoftYaHei-31"/>
       <use xlink:href="#MicrosoftYaHei-32" transform="translate(58.642578 0)"/>
       <use xlink:href="#MicrosoftYaHei-35" transform="translate(117.285156 0)"/>
       <use xlink:href="#MicrosoftYaHei-30" transform="translate(175.927734 0)"/>
      </g>
     </g>
    </g>
    <g id="xtick_7">
     <g id="line2d_13">
      <path d="M 824.665034 524.31875 
L 824.665034 39.99 
" clip-path="url(#pa99e1d1863)" style="fill: none; stroke-dasharray: 0.8,1.32; stroke-dashoffset: 0; stroke: #b0b0b0; stroke-opacity: 0.3; stroke-width: 0.8"/>
     </g>
     <g id="line2d_14">
      <g>
       <use xlink:href="#mc318c5010c" x="824.665034" y="524.31875" style="stroke: #000000; stroke-width: 0.8"/>
      </g>
     </g>
     <g id="text_7">
      <!-- 1500 -->
      <g transform="translate(812.936909 539.3125) scale(0.1 -0.1)">
       <use xlink:href="#MicrosoftYaHei-31"/>
       <use xlink:href="#MicrosoftYaHei-35" transform="translate(58.642578 0)"/>
       <use xlink:href="#MicrosoftYaHei-30" transform="translate(117.285156 0)"/>
       <use xlink:href="#MicrosoftYaHei-30" transform="translate(175.927734 0)"/>
      </g>
     </g>
    </g>
    <g id="xtick_8">
     <g id="line2d_15">
      <path d="M 954.274623 524.31875 
L 954.274623 39.99 
" clip-path="url(#pa99e1d1863)" style="fill: none; stroke-dasharray: 0.8,1.32; stroke-dashoffset: 0; stroke: #b0b0b0; stroke-opacity: 0.3; stroke-width: 0.8"/>
     </g>
     <g id="line2d_16">
      <g>
       <use xlink:href="#mc318c5010c" x="954.274623" y="524.31875" style="stroke: #000000; stroke-width: 0.8"/>
      </g>
     </g>
     <g id="text_8">
      <!-- 1750 -->
      <g transform="translate(942.546498 539.3125) scale(0.1 -0.1)">
       <use xlink:href="#MicrosoftYaHei-31"/>
       <use xlink:href="#MicrosoftYaHei-37" transform="translate(58.642578 0)"/>
       <use xlink:href="#MicrosoftYaHei-35" transform="translate(117.285156 0)"/>
       <use xlink:href="#MicrosoftYaHei-30" transform="translate(175.927734 0)"/>
      </g>
     </g>
    </g>
    <g id="text_9">
     <!-- 时间（天） -->
     <g transform="translate(485.0825 556.989687) scale(0.14 -0.14)">
      <defs>
       <path id="MicrosoftYaHei-Bold-65f6" d="M 3038 4241 
L 4888 4241 
L 4888 5291 
L 5781 5291 
L 5781 4241 
L 6306 4241 
L 6306 3409 
L 5781 3409 
L 5781 316 
Q 5781 -209 5547 -478 
Q 5313 -747 4898 -762 
Q 4484 -778 3669 -778 
Q 3569 -209 3456 134 
Q 4344 109 4431 109 
Q 4888 109 4888 584 
L 4888 3409 
L 3038 3409 
L 3038 4241 
z
M 394 -497 
L 394 4897 
L 2856 4897 
L 2856 -459 
L 2031 -459 
L 2031 -28 
L 1219 -28 
L 1219 -497 
L 394 -497 
z
M 2031 4072 
L 1219 4072 
L 1219 2834 
L 2031 2834 
L 2031 4072 
z
M 1219 797 
L 2031 797 
L 2031 2034 
L 1219 2034 
L 1219 797 
z
M 3588 3072 
Q 4013 2541 4713 1559 
L 3956 1066 
Q 3388 2009 2938 2641 
L 3588 3072 
z
" transform="scale(0.015625)"/>
       <path id="MicrosoftYaHei-Bold-95f4" d="M 1088 5059 
L 1906 5347 
Q 2200 4884 2506 4334 
L 1638 4003 
Q 1356 4597 1088 5059 
z
M 6056 347 
Q 6056 -106 5904 -378 
Q 5753 -650 5422 -736 
Q 5091 -822 3950 -822 
Q 3875 -359 3750 53 
Q 4150 28 4769 28 
Q 5188 28 5188 397 
L 5188 4278 
L 2719 4278 
L 2719 5047 
L 6056 5047 
L 6056 347 
z
M 344 4522 
L 1213 4522 
L 1213 -803 
L 344 -803 
L 344 4522 
z
M 1788 3772 
L 4581 3772 
L 4581 484 
L 2575 484 
L 2575 141 
L 1788 141 
L 1788 3772 
z
M 3794 3072 
L 2575 3072 
L 2575 2478 
L 3794 2478 
L 3794 3072 
z
M 3794 1184 
L 3794 1778 
L 2575 1778 
L 2575 1184 
L 3794 1184 
z
" transform="scale(0.015625)"/>
       <path id="MicrosoftYaHei-Bold-ff08" d="M 5197 -1088 
Q 4056 184 4056 1881 
Q 4056 3616 5203 4838 
L 6034 4838 
Q 4922 3503 4922 1888 
Q 4922 266 6028 -1088 
L 5197 -1088 
z
" transform="scale(0.015625)"/>
       <path id="MicrosoftYaHei-Bold-5929" d="M 169 2966 
L 2628 2966 
Q 2706 3475 2728 4116 
L 513 4116 
L 513 4966 
L 5913 4966 
L 5913 4116 
L 3641 4116 
Q 3616 3569 3572 2966 
L 6231 2966 
L 6231 2103 
L 3841 2103 
Q 4531 525 6288 9 
Q 6031 -278 5563 -878 
Q 3913 -184 3163 1553 
Q 2606 125 806 -847 
Q 563 -534 100 -47 
Q 2100 859 2434 2103 
L 169 2103 
L 169 2966 
z
" transform="scale(0.015625)"/>
       <path id="MicrosoftYaHei-Bold-ff09" d="M 1191 -1088 
L 359 -1088 
Q 1472 238 1472 1863 
Q 1472 3478 366 4838 
L 1197 4838 
Q 2338 3572 2338 1863 
Q 2338 125 1191 -1088 
z
" transform="scale(0.015625)"/>
      </defs>
      <use xlink:href="#MicrosoftYaHei-Bold-65f6"/>
      <use xlink:href="#MicrosoftYaHei-Bold-95f4" transform="translate(100 0)"/>
      <use xlink:href="#MicrosoftYaHei-Bold-ff08" transform="translate(200 0)"/>
      <use xlink:href="#MicrosoftYaHei-Bold-5929" transform="translate(300 0)"/>
      <use xlink:href="#MicrosoftYaHei-Bold-ff09" transform="translate(400 0)"/>
     </g>
    </g>
   </g>
   <g id="matplotlib.axis_2">
    <g id="ytick_1">
     <g id="line2d_17">
      <path d="M 47.0075 524.31875 
L 993.1575 524.31875 
" clip-path="url(#pa99e1d1863)" style="fill: none; stroke-dasharray: 0.8,1.32; stroke-dashoffset: 0; stroke: #b0b0b0; stroke-opacity: 0.3; stroke-width: 0.8"/>
     </g>
     <g id="line2d_18">
      <defs>
       <path id="m0869b5f1ea" d="M 0 0 
L -3.5 0 
" style="stroke: #000000; stroke-width: 0.8"/>
      </defs>
      <g>
       <use xlink:href="#m0869b5f1ea" x="47.0075" y="524.31875" style="stroke: #000000; stroke-width: 0.8"/>
      </g>
     </g>
     <g id="text_10">
      <!-- 0.0 -->
      <g transform="translate(25.871563 528.315625) scale(0.1 -0.1)">
       <defs>
        <path id="MicrosoftYaHei-2e" d="M 372 322 
Q 372 491 487 606 
Q 603 722 775 722 
Q 950 722 1065 605 
Q 1181 488 1181 322 
Q 1181 159 1065 42 
Q 950 -75 772 -75 
Q 600 -75 486 42 
Q 372 159 372 322 
z
" transform="scale(0.015625)"/>
       </defs>
       <use xlink:href="#MicrosoftYaHei-30"/>
       <use xlink:href="#MicrosoftYaHei-2e" transform="translate(58.642578 0)"/>
       <use xlink:href="#MicrosoftYaHei-30" transform="translate(82.714844 0)"/>
      </g>
     </g>
    </g>
    <g id="ytick_2">
     <g id="line2d_19">
      <path d="M 47.0075 432.065655 
L 993.1575 432.065655 
" clip-path="url(#pa99e1d1863)" style="fill: none; stroke-dasharray: 0.8,1.32; stroke-dashoffset: 0; stroke: #b0b0b0; stroke-opacity: 0.3; stroke-width: 0.8"/>
     </g>
     <g id="line2d_20">
      <g>
       <use xlink:href="#m0869b5f1ea" x="47.0075" y="432.065655" style="stroke: #000000; stroke-width: 0.8"/>
      </g>
     </g>
     <g id="text_11">
      <!-- 0.2 -->
      <g transform="translate(25.871563 436.06253) scale(0.1 -0.1)">
       <use xlink:href="#MicrosoftYaHei-30"/>
       <use xlink:href="#MicrosoftYaHei-2e" transform="translate(58.642578 0)"/>
       <use xlink:href="#MicrosoftYaHei-32" transform="translate(82.714844 0)"/>
      </g>
     </g>
    </g>
    <g id="ytick_3">
     <g id="line2d_21">
      <path d="M 47.0075 339.81256 
L 993.1575 339.81256 
" clip-path="url(#pa99e1d1863)" style="fill: none; stroke-dasharray: 0.8,1.32; stroke-dashoffset: 0; stroke: #b0b0b0; stroke-opacity: 0.3; stroke-width: 0.8"/>
     </g>
     <g id="line2d_22">
      <g>
       <use xlink:href="#m0869b5f1ea" x="47.0075" y="339.81256" style="stroke: #000000; stroke-width: 0.8"/>
      </g>
     </g>
     <g id="text_12">
      <!-- 0.4 -->
      <g transform="translate(25.871563 343.809435) scale(0.1 -0.1)">
       <defs>
        <path id="MicrosoftYaHei-34" d="M 2906 4841 
L 2906 1644 
L 3631 1644 
L 3631 1138 
L 2906 1138 
L 2906 0 
L 2313 0 
L 2313 1138 
L 53 1138 
L 53 1616 
Q 656 2294 1265 3178 
Q 1875 4063 2272 4841 
L 2906 4841 
z
M 741 1644 
L 2313 1644 
L 2313 3950 
Q 1988 3366 1616 2817 
Q 1244 2269 741 1644 
z
" transform="scale(0.015625)"/>
       </defs>
       <use xlink:href="#MicrosoftYaHei-30"/>
       <use xlink:href="#MicrosoftYaHei-2e" transform="translate(58.642578 0)"/>
       <use xlink:href="#MicrosoftYaHei-34" transform="translate(82.714844 0)"/>
      </g>
     </g>
    </g>
    <g id="ytick_4">
     <g id="line2d_23">
      <path d="M 47.0075 247.559464 
L 993.1575 247.559464 
" clip-path="url(#pa99e1d1863)" style="fill: none; stroke-dasharray: 0.8,1.32; stroke-dashoffset: 0; stroke: #b0b0b0; stroke-opacity: 0.3; stroke-width: 0.8"/>
     </g>
     <g id="line2d_24">
      <g>
       <use xlink:href="#m0869b5f1ea" x="47.0075" y="247.559464" style="stroke: #000000; stroke-width: 0.8"/>
      </g>
     </g>
     <g id="text_13">
      <!-- 0.6 -->
      <g transform="translate(25.871563 251.556339) scale(0.1 -0.1)">
       <defs>
        <path id="MicrosoftYaHei-36" d="M 3181 4219 
Q 2803 4413 2391 4413 
Q 1763 4413 1381 3866 
Q 1000 3319 994 2372 
L 1009 2372 
Q 1353 3038 2106 3038 
Q 2734 3038 3109 2628 
Q 3484 2219 3484 1541 
Q 3484 831 3051 375 
Q 2619 -81 1947 -81 
Q 1209 -81 789 495 
Q 369 1072 369 2131 
Q 369 3413 920 4167 
Q 1472 4922 2372 4922 
Q 2888 4922 3181 4781 
L 3181 4219 
z
M 1031 1584 
Q 1031 1106 1286 765 
Q 1541 425 1963 425 
Q 2363 425 2613 719 
Q 2863 1013 2863 1475 
Q 2863 1975 2627 2253 
Q 2391 2531 1956 2531 
Q 1544 2531 1287 2250 
Q 1031 1969 1031 1584 
z
" transform="scale(0.015625)"/>
       </defs>
       <use xlink:href="#MicrosoftYaHei-30"/>
       <use xlink:href="#MicrosoftYaHei-2e" transform="translate(58.642578 0)"/>
       <use xlink:href="#MicrosoftYaHei-36" transform="translate(82.714844 0)"/>
      </g>
     </g>
    </g>
    <g id="ytick_5">
     <g id="line2d_25">
      <path d="M 47.0075 155.306369 
L 993.1575 155.306369 
" clip-path="url(#pa99e1d1863)" style="fill: none; stroke-dasharray: 0.8,1.32; stroke-dashoffset: 0; stroke: #b0b0b0; stroke-opacity: 0.3; stroke-width: 0.8"/>
     </g>
     <g id="line2d_26">
      <g>
       <use xlink:href="#m0869b5f1ea" x="47.0075" y="155.306369" style="stroke: #000000; stroke-width: 0.8"/>
      </g>
     </g>
     <g id="text_14">
      <!-- 0.8 -->
      <g transform="translate(25.871563 159.303244) scale(0.1 -0.1)">
       <defs>
        <path id="MicrosoftYaHei-38" d="M 306 1350 
Q 306 1769 556 2122 
Q 806 2475 1200 2625 
Q 884 2803 700 3081 
Q 516 3359 516 3684 
Q 516 4028 692 4312 
Q 869 4597 1183 4759 
Q 1497 4922 1875 4922 
Q 2256 4922 2572 4761 
Q 2888 4600 3063 4315 
Q 3238 4031 3238 3684 
Q 3238 3366 3058 3086 
Q 2878 2806 2559 2625 
Q 2953 2472 3200 2119 
Q 3447 1766 3447 1350 
Q 3447 938 3250 611 
Q 3053 284 2690 103 
Q 2328 -78 1875 -78 
Q 1425 -78 1065 103 
Q 706 284 506 612 
Q 306 941 306 1350 
z
M 906 1378 
Q 906 947 1172 687 
Q 1438 428 1878 428 
Q 2309 428 2582 692 
Q 2856 956 2856 1378 
Q 2856 1778 2579 2051 
Q 2303 2325 1878 2325 
Q 1456 2325 1181 2058 
Q 906 1791 906 1378 
z
M 1081 3634 
Q 1081 3309 1312 3076 
Q 1544 2844 1878 2844 
Q 2206 2844 2445 3078 
Q 2684 3313 2684 3634 
Q 2684 3963 2454 4191 
Q 2225 4419 1878 4419 
Q 1534 4419 1307 4195 
Q 1081 3972 1081 3634 
z
" transform="scale(0.015625)"/>
       </defs>
       <use xlink:href="#MicrosoftYaHei-30"/>
       <use xlink:href="#MicrosoftYaHei-2e" transform="translate(58.642578 0)"/>
       <use xlink:href="#MicrosoftYaHei-38" transform="translate(82.714844 0)"/>
      </g>
     </g>
    </g>
    <g id="ytick_6">
     <g id="line2d_27">
      <path d="M 47.0075 63.053274 
L 993.1575 63.053274 
" clip-path="url(#pa99e1d1863)" style="fill: none; stroke-dasharray: 0.8,1.32; stroke-dashoffset: 0; stroke: #b0b0b0; stroke-opacity: 0.3; stroke-width: 0.8"/>
     </g>
     <g id="line2d_28">
      <g>
       <use xlink:href="#m0869b5f1ea" x="47.0075" y="63.053274" style="stroke: #000000; stroke-width: 0.8"/>
      </g>
     </g>
     <g id="text_15">
      <!-- 1.0 -->
      <g transform="translate(25.871563 67.050149) scale(0.1 -0.1)">
       <use xlink:href="#MicrosoftYaHei-31"/>
       <use xlink:href="#MicrosoftYaHei-2e" transform="translate(58.642578 0)"/>
       <use xlink:href="#MicrosoftYaHei-30" transform="translate(82.714844 0)"/>
      </g>
     </g>
    </g>
    <g id="text_16">
     <!-- 记忆权重 -->
     <g transform="translate(18.39125 310.154375) rotate(-90) scale(0.14 -0.14)">
      <defs>
       <path id="MicrosoftYaHei-Bold-8bb0" d="M 1213 5291 
Q 1619 4766 2050 4134 
Q 1750 3959 1238 3628 
Q 863 4316 481 4859 
L 1213 5291 
z
M 5400 1422 
Q 5800 1278 6319 1134 
Q 6153 144 6043 -109 
Q 5934 -363 5681 -492 
Q 5428 -622 5031 -622 
L 3469 -622 
Q 2550 -622 2550 409 
L 2550 3009 
L 4944 3009 
L 4944 4191 
L 2438 4191 
L 2438 4991 
L 5844 4991 
L 5844 2209 
L 3450 2209 
L 3450 578 
Q 3450 166 3863 166 
L 4794 166 
Q 5109 166 5215 352 
Q 5322 538 5400 1422 
z
M 2244 1259 
Q 2306 666 2388 322 
Q 1456 -359 1044 -778 
L 594 -159 
Q 731 3 738 353 
L 738 2403 
L 125 2403 
L 125 3247 
L 1594 3247 
L 1594 753 
Q 1781 884 2244 1259 
z
" transform="scale(0.015625)"/>
       <path id="MicrosoftYaHei-Bold-5fc6" d="M 981 5303 
L 1775 5303 
L 1775 4213 
Q 2288 3894 2763 3553 
L 2363 2891 
Q 2094 3128 1775 3381 
L 1775 -859 
L 981 -859 
L 981 5303 
z
M 5931 4928 
L 5931 4097 
Q 4875 3044 4248 2350 
Q 3622 1656 3355 1272 
Q 3088 888 3088 669 
Q 3088 178 3775 184 
L 4738 184 
Q 5041 184 5203 312 
Q 5366 441 5417 803 
Q 5469 1166 5513 1728 
L 6319 1391 
Q 6244 747 6128 223 
Q 6013 -300 5648 -454 
Q 5284 -609 4769 -609 
L 3444 -609 
Q 2172 -609 2172 566 
Q 2172 931 2426 1381 
Q 2681 1831 3257 2509 
Q 3834 3188 4750 4091 
L 2413 4091 
L 2413 4928 
L 5931 4928 
z
M 44 2253 
Q 231 3166 350 4178 
L 919 4097 
Q 775 3022 600 2153 
Q 319 2222 44 2253 
z
" transform="scale(0.015625)"/>
       <path id="MicrosoftYaHei-Bold-6743" d="M 81 1597 
Q 528 2284 816 3372 
L 138 3372 
L 138 4203 
L 850 4203 
L 850 5322 
L 1663 5322 
L 1663 4203 
L 2319 4203 
L 2319 3372 
L 1663 3372 
L 1663 2616 
L 1856 2791 
Q 2281 2397 2731 1941 
L 2144 1409 
Q 1906 1713 1663 1984 
L 1663 -828 
L 850 -828 
L 850 1425 
Q 634 903 369 491 
Q 231 1053 81 1597 
z
M 3344 4159 
Q 3594 2841 4241 1875 
Q 4913 2875 5113 4228 
L 2363 4228 
L 2363 5028 
L 5994 5028 
L 5994 4241 
Q 5725 2459 4806 1175 
Q 5438 519 6319 84 
Q 6025 -347 5769 -803 
Q 4878 -278 4213 463 
Q 3459 -316 2406 -866 
Q 2163 -403 1894 -41 
Q 2947 438 3663 1169 
Q 2906 2297 2556 3816 
L 3344 4159 
z
" transform="scale(0.015625)"/>
       <path id="MicrosoftYaHei-Bold-91cd" d="M 106 -78 
L 2788 -78 
L 2788 241 
L 513 241 
L 513 766 
L 2788 766 
L 2788 1072 
L 731 1072 
L 731 3272 
L 2788 3272 
L 2788 3578 
L 125 3578 
L 125 4141 
L 2788 4141 
L 2788 4453 
L 663 4416 
Q 613 4691 544 4978 
Q 3200 5009 5731 5122 
Q 5738 5103 5850 4534 
L 3613 4475 
L 3613 4141 
L 6313 4141 
L 6313 3578 
L 3613 3578 
L 3613 3272 
L 5694 3272 
L 5694 1072 
L 3613 1072 
L 3613 766 
L 5925 766 
L 5925 241 
L 3613 241 
L 3613 -78 
L 6313 -78 
L 6313 -641 
L 106 -641 
L 106 -78 
z
M 4888 2753 
L 3613 2753 
L 3613 2397 
L 4888 2397 
L 4888 2753 
z
M 1538 2397 
L 2788 2397 
L 2788 2753 
L 1538 2753 
L 1538 2397 
z
M 4888 1591 
L 4888 1947 
L 3613 1947 
L 3613 1591 
L 4888 1591 
z
M 1538 1591 
L 2788 1591 
L 2788 1947 
L 1538 1947 
L 1538 1591 
z
" transform="scale(0.015625)"/>
      </defs>
      <use xlink:href="#MicrosoftYaHei-Bold-8bb0"/>
      <use xlink:href="#MicrosoftYaHei-Bold-5fc6" transform="translate(100 0)"/>
      <use xlink:href="#MicrosoftYaHei-Bold-6743" transform="translate(200 0)"/>
      <use xlink:href="#MicrosoftYaHei-Bold-91cd" transform="translate(300 0)"/>
     </g>
    </g>
   </g>
   <g id="line2d_29">
    <path d="M 47.0075 63.053274 
L 50.795888 79.312269 
L 54.584277 94.464076 
L 58.372665 108.618064 
L 62.161054 121.869658 
L 65.949442 134.30249 
L 69.73783 145.99017 
L 73.526219 156.997737 
L 77.314607 167.382878 
L 81.102995 177.196934 
L 84.891384 186.485751 
L 88.679772 195.290395 
L 93.415258 205.671184 
L 98.150743 215.416983 
L 102.886229 224.584326 
L 107.621714 233.223228 
L 112.3572 241.378103 
L 117.092685 249.088521 
L 121.828171 256.389854 
L 126.563656 263.313816 
L 131.299142 269.888928 
L 136.034627 276.140907 
L 141.71721 283.249322 
L 147.399792 289.961872 
L 153.082375 296.310729 
L 158.764957 302.32467 
L 164.44754 308.029517 
L 170.130123 313.448501 
L 176.759802 319.437202 
L 183.389482 325.09514 
L 190.019162 330.44898 
L 196.648841 335.522597 
L 203.278521 340.337431 
L 210.855298 345.547901 
L 218.432075 350.47137 
L 226.008851 355.130917 
L 233.585628 359.547209 
L 242.109502 364.247813 
L 250.633376 368.687658 
L 259.15725 372.887856 
L 268.628221 377.296588 
L 278.099192 381.455873 
L 287.570163 385.386298 
L 297.988231 389.467315 
L 308.406299 393.315421 
L 319.771464 397.270443 
L 331.136629 400.993657 
L 343.448891 404.78846 
L 355.761154 408.356696 
L 369.020513 411.968583 
L 383.226969 415.596843 
L 397.433426 418.998092 
L 412.586979 422.399102 
L 428.68763 425.779986 
L 445.735378 429.123561 
L 463.730223 432.415238 
L 482.672165 435.64287 
L 502.561204 438.796567 
L 523.39734 441.868488 
L 545.180573 444.852622 
L 567.910903 447.74458 
L 592.535428 450.649012 
L 618.10705 453.440788 
L 645.572865 456.212896 
L 674.932875 458.946019 
L 706.18708 461.6243 
L 739.335478 464.235078 
L 774.378071 466.76858 
L 811.314857 469.217578 
L 851.092935 471.632079 
L 893.712305 473.994758 
L 939.172965 476.292047 
L 988.422015 478.555241 
L 993.1575 478.761666 
L 993.1575 478.761666 
" clip-path="url(#pa99e1d1863)" style="fill: none; stroke: #440154; stroke-opacity: 0.8; stroke-width: 2.5; stroke-linecap: square"/>
   </g>
   <g id="line2d_30">
    <path d="M 47.0075 63.053274 
L 49.848791 87.01938 
L 52.690083 108.618064 
L 55.531374 128.183602 
L 58.372665 145.99017 
L 61.213956 162.264764 
L 64.055248 177.196934 
L 66.896539 190.946197 
L 69.73783 203.647761 
L 72.579122 215.416983 
L 75.420413 226.352885 
L 78.261704 236.540945 
L 81.102995 246.055338 
L 83.944287 254.960743 
L 87.732675 265.984224 
L 91.521064 276.140907 
L 95.309452 285.52916 
L 99.09784 294.233013 
L 102.886229 302.32467 
L 106.674617 309.866529 
L 110.463006 316.912781 
L 114.251394 323.510727 
L 118.039782 329.701831 
L 121.828171 335.522597 
L 125.616559 341.00529 
L 130.352045 347.426539 
L 135.08753 353.413155 
L 139.823016 359.007822 
L 144.558501 364.247813 
L 149.293986 369.165817 
L 154.029472 373.790629 
L 158.764957 378.147708 
L 164.44754 383.05443 
L 170.130123 387.642431 
L 175.812705 391.941786 
L 181.495288 395.978906 
L 188.124967 400.38835 
L 194.754647 404.504863 
L 201.384327 408.356696 
L 208.014007 411.968583 
L 215.590783 415.830413 
L 223.16756 419.435579 
L 230.744337 422.808846 
L 239.268211 426.353465 
L 247.792085 429.658887 
L 257.263056 433.079425 
L 266.734027 436.261381 
L 277.152095 439.514662 
L 287.570163 442.536123 
L 298.935328 445.595899 
L 311.24759 448.662351 
L 323.559852 451.498868 
L 336.819212 454.324946 
L 351.025668 457.119186 
L 366.179222 459.863848 
L 382.279872 462.544608 
L 399.32762 465.150259 
L 417.322465 467.672361 
L 436.264407 470.104895 
L 457.100543 472.550267 
L 478.883776 474.881543 
L 502.561204 477.188503 
L 528.132825 479.449791 
L 555.598641 481.64873 
L 584.958651 483.772845 
L 617.159952 485.871943 
L 651.255448 487.86993 
L 688.192235 489.812566 
L 728.91741 491.727746 
L 773.430973 493.591812 
L 821.732925 495.387392 
L 874.770363 497.131859 
L 932.543286 498.807451 
L 993.1575 500.356907 
L 993.1575 500.356907 
" clip-path="url(#pa99e1d1863)" style="fill: none; stroke: #3b528b; stroke-opacity: 0.8; stroke-width: 2.5; stroke-linecap: square"/>
   </g>
   <g id="line2d_31">
    <path d="M 47.0075 63.053274 
L 48.901694 94.464076 
L 50.795888 121.869658 
L 52.690083 145.99017 
L 54.584277 167.382878 
L 56.478471 186.485751 
L 58.372665 203.647761 
L 60.266859 219.150399 
L 62.161054 233.223228 
L 64.055248 246.055338 
L 65.949442 257.80388 
L 67.843636 268.600542 
L 70.684927 283.249322 
L 73.526219 296.310729 
L 76.36751 308.029517 
L 79.208801 318.602585 
L 82.050093 328.190122 
L 84.891384 336.923788 
L 87.732675 344.912789 
L 90.573966 352.24847 
L 93.415258 359.007822 
L 96.256549 365.256199 
L 99.09784 371.04943 
L 101.939132 376.435499 
L 104.780423 381.455873 
L 108.568811 387.642431 
L 112.3572 393.315421 
L 116.145588 398.536244 
L 119.933976 403.356889 
L 123.722365 407.821667 
L 127.510753 411.968583 
L 131.299142 415.830413 
L 136.034627 420.299741 
L 140.770113 424.415398 
L 145.505598 428.217768 
L 150.241084 431.741309 
L 154.976569 435.015608 
L 160.659152 438.651486 
L 166.341734 442.002885 
L 172.024317 445.101935 
L 178.653996 448.434977 
L 185.283676 451.498868 
L 191.913356 454.324946 
L 199.490133 457.297557 
L 207.066909 460.027964 
L 215.590783 462.845403 
L 224.114657 465.42627 
L 233.585628 468.051064 
L 243.056599 470.451872 
L 253.474667 472.866739 
L 264.839832 475.265715 
L 277.152095 477.624297 
L 290.411454 479.923142 
L 304.61791 482.147595 
L 319.771464 484.28711 
L 335.872115 486.334642 
L 353.866959 488.388597 
L 372.808901 490.323604 
L 393.645038 492.22485 
L 416.375368 494.070344 
L 440.999892 495.844165 
L 468.465708 497.592293 
L 498.772815 499.287966 
L 531.921214 500.912227 
L 568.858001 502.49055 
L 609.583176 504.001104 
L 655.043836 505.458067 
L 705.239982 506.841868 
L 762.065808 508.182171 
L 826.468411 509.472536 
L 899.394887 510.705225 
L 982.739432 511.885081 
L 993.1575 512.018337 
L 993.1575 512.018337 
" clip-path="url(#pa99e1d1863)" style="fill: none; stroke: #21918c; stroke-opacity: 0.8; stroke-width: 2.5; stroke-linecap: square"/>
   </g>
   <g id="line2d_32">
    <path d="M 47.0075 63.053274 
L 47.954597 101.659534 
L 48.901694 134.30249 
L 49.848791 162.264764 
L 50.795888 186.485751 
L 51.742985 207.669232 
L 53.63718 242.954555 
L 55.531374 271.164397 
L 57.425568 294.233013 
L 59.319762 313.448501 
L 61.213956 329.701831 
L 63.108151 343.628931 
L 65.002345 355.695857 
L 66.896539 366.25196 
L 68.790733 375.564263 
L 70.684927 383.840369 
L 72.579122 391.24411 
L 74.473316 397.906512 
L 76.36751 403.933612 
L 78.261704 409.412145 
L 80.155898 414.413745 
L 82.99719 421.149779 
L 85.838481 427.107799 
L 88.679772 432.415238 
L 91.521064 437.173138 
L 94.362355 441.462648 
L 97.203646 445.349689 
L 100.044937 448.888367 
L 102.886229 452.123503 
L 105.72752 455.092548 
L 109.515908 458.691148 
L 113.304297 461.934101 
L 117.092685 464.871648 
L 120.881074 467.544992 
L 124.669462 469.988241 
L 129.404947 472.761679 
L 134.140433 475.265715 
L 138.875918 477.537784 
L 144.558501 480.001065 
L 150.241084 482.217911 
L 156.870763 484.539381 
L 163.500443 486.618215 
L 171.07722 488.742968 
L 178.653996 490.641002 
L 187.17787 492.547914 
L 196.648841 494.428424 
L 207.066909 496.255583 
L 218.432075 498.010007 
L 230.744337 499.67879 
L 244.003696 501.254322 
L 259.15725 502.825014 
L 276.204997 504.354527 
L 295.146939 505.817386 
L 315.983076 507.197393 
L 339.660503 508.535216 
L 366.179222 509.805346 
L 396.486329 511.027695 
L 430.581824 512.178026 
L 470.359902 513.291494 
L 515.820563 514.337666 
L 568.858001 515.332314 
L 631.366409 516.276827 
L 705.239982 517.165377 
L 794.26711 518.005953 
L 902.236179 518.793371 
L 993.1575 519.318582 
L 993.1575 519.318582 
" clip-path="url(#pa99e1d1863)" style="fill: none; stroke: #5ec962; stroke-opacity: 0.8; stroke-width: 2.5; stroke-linecap: square"/>
   </g>
   <g id="line2d_33">
    <path d="M 47.0075 201.432917 
L 993.1575 201.432917 
" clip-path="url(#pa99e1d1863)" style="fill: none; stroke-dasharray: 5.55,2.4; stroke-dashoffset: 0; stroke: #2e7d32; stroke-opacity: 0.5; stroke-width: 1.5"/>
   </g>
   <g id="line2d_34">
    <path d="M 47.0075 385.939107 
L 993.1575 385.939107 
" clip-path="url(#pa99e1d1863)" style="fill: none; stroke-dasharray: 5.55,2.4; stroke-dashoffset: 0; stroke: #66bb6a; stroke-opacity: 0.5; stroke-width: 1.5"/>
   </g>
   <g id="line2d_35">
    <path d="M 47.0075 478.192202 
L 993.1575 478.192202 
" clip-path="url(#pa99e1d1863)" style="fill: none; stroke-dasharray: 5.55,2.4; stroke-dashoffset: 0; stroke: #ffa726; stroke-opacity: 0.5; stroke-width: 1.5"/>
   </g>
   <g id="line2d_36">
    <path d="M 47.0075 510.480786 
L 993.1575 510.480786 
" clip-path="url(#pa99e1d1863)" style="fill: none; stroke-dasharray: 5.55,2.4; stroke-dashoffset: 0; stroke: #ef5350; stroke-opacity: 0.5; stroke-width: 1.5"/>
   </g>
   <g id="patch_3">
    <path d="M 47.0075 524.31875 
L 47.0075 39.99 
" style="fill: none; stroke: #000000; stroke-width: 0.8; stroke-linejoin: miter; stroke-linecap: square"/>
   </g>
   <g id="patch_4">
    <path d="M 993.1575 524.31875 
L 993.1575 39.99 
" style="fill: none; stroke: #000000; stroke-width: 0.8; stroke-linejoin: miter; stroke-linecap: square"/>
   </g>
   <g id="patch_5">
    <path d="M 47.0075 524.31875 
L 993.1575 524.31875 
" style="fill: none; stroke: #000000; stroke-width: 0.8; stroke-linejoin: miter; stroke-linecap: square"/>
   </g>
   <g id="patch_6">
    <path d="M 47.0075 39.99 
L 993.1575 39.99 
" style="fill: none; stroke: #000000; stroke-width: 0.8; stroke-linejoin: miter; stroke-linecap: square"/>
   </g>
   <g id="text_17">
    <!-- 不同衰减系数对比 -->
    <g transform="translate(456.0825 19.99) scale(0.16 -0.16)">
     <defs>
      <path id="MicrosoftYaHei-Bold-4e0d" d="M 350 4928 
L 6088 4928 
L 6088 4078 
L 3866 4078 
Q 3659 3556 3375 3072 
L 3675 3072 
L 3675 2341 
L 4300 2928 
Q 5144 2178 6338 1078 
L 5606 359 
Q 4809 1284 3675 2316 
L 3675 -853 
L 2731 -853 
L 2731 2141 
Q 1925 1138 725 303 
Q 525 591 88 1128 
Q 2069 2419 2813 4078 
L 350 4078 
L 350 4928 
z
" transform="scale(0.015625)"/>
      <path id="MicrosoftYaHei-Bold-540c" d="M 381 5078 
L 6019 5078 
L 6019 291 
Q 6019 -253 5776 -523 
Q 5534 -794 5107 -801 
Q 4681 -809 4075 -809 
Q 3981 -309 3881 59 
Q 4272 19 4597 19 
Q 4847 19 4950 45 
Q 5053 72 5117 165 
Q 5181 259 5181 416 
L 5181 4297 
L 1219 4297 
L 1219 -797 
L 381 -797 
L 381 5078 
z
M 4875 3078 
L 1525 3078 
L 1525 3791 
L 4875 3791 
L 4875 3078 
z
M 1738 2591 
L 4638 2591 
L 4638 403 
L 2550 403 
L 2550 3 
L 1738 3 
L 1738 2591 
z
M 3825 1103 
L 3825 1891 
L 2550 1891 
L 2550 1103 
L 3825 1103 
z
" transform="scale(0.015625)"/>
      <path id="MicrosoftYaHei-Bold-8870" d="M 300 4797 
L 2678 4797 
L 2500 5234 
L 3569 5341 
Q 3650 5122 3756 4797 
L 6100 4797 
L 6100 4122 
L 300 4122 
L 300 4797 
z
M 5875 791 
Q 5522 641 4963 428 
Q 5531 178 6306 53 
Q 5944 -409 5731 -728 
Q 4419 -328 3700 384 
Q 3644 -109 3638 -409 
Q 2119 -672 1800 -853 
L 1406 -166 
Q 1619 -28 1631 222 
L 1631 263 
Q 1116 0 494 -247 
Q 319 122 94 503 
Q 1363 856 2259 1428 
L 1038 1428 
L 1038 2297 
L 131 2297 
L 131 2972 
L 1038 2972 
L 1038 3841 
L 5263 3841 
L 5263 2972 
L 6263 2972 
L 6263 2297 
L 5263 2297 
L 5263 1428 
L 3728 1428 
Q 3978 1103 4275 850 
Q 5019 1194 5431 1441 
L 5875 791 
z
M 4450 3291 
L 1850 3291 
L 1850 2972 
L 4450 2972 
L 4450 3291 
z
M 4450 1978 
L 4450 2297 
L 1850 2297 
L 1850 1978 
L 4450 1978 
z
M 3056 1203 
Q 2784 959 2438 731 
L 2438 184 
Q 2925 284 3638 447 
Q 3328 772 3056 1203 
z
" transform="scale(0.015625)"/>
      <path id="MicrosoftYaHei-Bold-51cf" d="M 6200 4497 
L 6200 3734 
L 5034 3734 
Q 5063 2603 5113 1950 
Q 5375 2566 5525 3266 
L 6213 3078 
Q 5866 1788 5269 756 
Q 5363 328 5494 166 
Q 5556 59 5619 72 
Q 5734 109 5750 1078 
Q 6081 959 6319 909 
Q 6250 -847 5619 -847 
Q 5025 -847 4766 0 
Q 4431 -447 4038 -834 
Q 3963 -709 3525 -253 
Q 3822 9 4078 303 
L 3125 303 
L 3125 -47 
L 2500 -47 
L 2500 2309 
L 4113 2309 
L 4113 341 
Q 4347 616 4550 913 
Q 4388 1916 4313 3734 
L 2288 3734 
L 2288 2253 
Q 2288 203 1688 -872 
Q 1356 -628 900 -359 
Q 1519 603 1525 2241 
L 1525 4497 
L 4281 4497 
L 4256 5322 
L 4988 5322 
Q 4988 5134 5006 4497 
L 5453 4497 
Q 5284 4744 5063 5022 
L 5600 5347 
Q 5894 5028 6088 4759 
L 5656 4497 
L 6200 4497 
z
M 3488 903 
L 3488 1709 
L 3125 1709 
L 3125 903 
L 3488 903 
z
M 788 5009 
Q 1200 4328 1494 3684 
L 750 3328 
Q 481 3972 113 4678 
L 788 5009 
z
M 2500 3347 
L 4125 3347 
L 4125 2722 
L 2500 2722 
L 2500 3347 
z
M 675 2734 
Q 1044 2566 1388 2434 
Q 1169 1416 831 228 
Q 450 453 81 622 
Q 413 1591 675 2734 
z
" transform="scale(0.015625)"/>
      <path id="MicrosoftYaHei-Bold-7cfb" d="M 344 4916 
Q 3406 4903 5900 5159 
L 6025 4472 
Q 4769 4353 3397 4278 
Q 2747 3884 2019 3528 
L 4084 3622 
Q 4550 3884 5038 4178 
L 5625 3591 
Q 3875 2622 1900 1878 
Q 3247 1938 4613 2034 
Q 4372 2272 4156 2466 
L 4738 2934 
Q 5219 2516 6263 1466 
L 5669 922 
Q 5447 1169 5241 1388 
L 3731 1328 
L 3731 -141 
Q 3731 -456 3547 -622 
Q 3363 -788 2984 -802 
Q 2606 -816 1975 -816 
Q 1919 -359 1813 34 
Q 2119 9 2466 9 
Q 2719 9 2800 65 
Q 2881 122 2881 278 
L 2881 1288 
Q 1481 1216 738 1128 
L 519 1903 
Q 1575 2303 2803 2931 
Q 1563 2856 888 2759 
L 656 3522 
Q 1338 3775 2075 4213 
L 481 4166 
Q 438 4522 344 4916 
z
M 4738 1153 
Q 5431 678 6294 -3 
L 5719 -603 
Q 5050 -28 4213 603 
L 4738 1153 
z
M 1569 1091 
L 2200 534 
Q 1494 -128 656 -678 
Q 369 -309 88 -9 
Q 894 447 1569 1091 
z
" transform="scale(0.015625)"/>
      <path id="MicrosoftYaHei-Bold-6570" d="M 238 4091 
L 725 4091 
Q 559 4425 281 4803 
L 844 5153 
Q 1038 4922 1369 4428 
L 806 4091 
L 1506 4091 
L 1506 5316 
L 2300 5316 
L 2300 4091 
L 2956 4091 
L 2438 4428 
Q 2750 4809 2963 5172 
L 3550 4822 
Q 3341 4466 3031 4091 
L 3394 4091 
L 3394 3453 
L 2300 3453 
L 2300 3016 
L 2513 3303 
Q 2903 3094 3253 2891 
Q 3766 3841 4138 5347 
L 4994 5266 
Q 4869 4781 4728 4341 
L 6294 4341 
L 6294 3578 
L 6041 3578 
Q 5906 1922 5338 856 
Q 5738 391 6319 53 
Q 6094 -203 5775 -778 
Q 5228 -413 4828 109 
Q 4313 -497 3631 -872 
Q 3378 -513 3072 -197 
L 2850 -566 
Q 2475 -350 2031 -128 
Q 1347 -584 394 -778 
Q 281 -434 63 -9 
Q 716 59 1213 253 
Q 781 444 300 641 
Q 513 950 681 1259 
L 169 1259 
L 169 1897 
L 991 1897 
Q 1094 2144 1169 2391 
L 1506 2359 
L 1506 2959 
Q 1044 2472 344 2053 
Q 213 2472 50 2803 
Q 672 3044 1172 3453 
L 238 3453 
L 238 4091 
z
M 4394 3400 
Q 4519 2359 4831 1659 
Q 5203 2478 5275 3578 
L 4463 3578 
Q 4431 3488 4394 3400 
z
M 2300 2216 
L 1984 2216 
Q 1913 2063 1825 1897 
L 3281 1897 
L 3281 1316 
Q 3038 806 2672 413 
L 3294 166 
L 3169 -38 
Q 3859 322 4347 894 
Q 4041 1522 3878 2300 
Q 3769 2103 3656 1922 
Q 3513 2172 3322 2438 
L 3138 2159 
Q 2750 2422 2300 2691 
L 2300 2216 
z
M 1300 934 
L 1950 691 
Q 2231 934 2413 1259 
L 1484 1259 
L 1300 934 
z
" transform="scale(0.015625)"/>
      <path id="MicrosoftYaHei-Bold-5bf9" d="M 3050 4234 
L 4850 4234 
L 4850 5309 
L 5744 5309 
L 5744 4234 
L 6319 4234 
L 6319 3409 
L 5744 3409 
L 5744 216 
Q 5744 -250 5539 -490 
Q 5334 -731 4987 -754 
Q 4641 -778 3656 -778 
Q 3594 -359 3450 147 
Q 3931 109 4409 109 
Q 4850 109 4850 516 
L 4850 3409 
L 3050 3409 
L 3050 4234 
z
M 863 3772 
L 1691 2509 
Q 1934 3206 2025 4016 
L 188 4016 
L 188 4834 
L 2900 4834 
L 2900 4028 
Q 2709 2722 2247 1669 
L 3169 278 
L 2394 -228 
L 1781 778 
Q 1269 -47 550 -684 
Q 369 -316 88 153 
Q 816 772 1278 1594 
L 181 3341 
L 863 3772 
z
M 3463 3047 
Q 4069 2278 4588 1528 
L 3844 1041 
Q 3375 1841 2813 2609 
L 3463 3047 
z
" transform="scale(0.015625)"/>
      <path id="MicrosoftYaHei-Bold-6bd4" d="M 5481 4441 
L 6294 3803 
Q 5234 2791 4119 1894 
L 4119 547 
Q 4119 153 4438 153 
L 4875 153 
Q 5119 153 5197 325 
Q 5275 497 5363 1597 
Q 5856 1409 6294 1278 
Q 6231 688 6131 248 
Q 6031 -191 5900 -358 
Q 5769 -525 5511 -617 
Q 5253 -709 4881 -709 
L 4094 -709 
Q 3194 -709 3194 247 
L 3194 5316 
L 4119 5316 
L 4119 3009 
Q 4797 3656 5481 4441 
z
M 1419 5241 
L 1419 3453 
L 2850 3453 
L 2850 2591 
L 1419 2591 
L 1419 372 
L 2869 866 
Q 2856 372 2888 -78 
Q 1500 -503 725 -922 
L 275 -184 
Q 494 -16 494 366 
L 494 5241 
L 1419 5241 
z
" transform="scale(0.015625)"/>
     </defs>
     <use xlink:href="#MicrosoftYaHei-Bold-4e0d"/>
     <use xlink:href="#MicrosoftYaHei-Bold-540c" transform="translate(100 0)"/>
     <use xlink:href="#MicrosoftYaHei-Bold-8870" transform="translate(200 0)"/>
     <use xlink:href="#MicrosoftYaHei-Bold-51cf" transform="translate(300 0)"/>
     <use xlink:href="#MicrosoftYaHei-Bold-7cfb" transform="translate(400 0)"/>
     <use xlink:href="#MicrosoftYaHei-Bold-6570" transform="translate(500 0)"/>
     <use xlink:href="#MicrosoftYaHei-Bold-5bf9" transform="translate(600 0)"/>
     <use xlink:href="#MicrosoftYaHei-Bold-6bd4" transform="translate(700 0)"/>
    </g>
   </g>
   <g id="legend_1">
    <g id="patch_7">
     <path d="M 712.191875 109.90875 
L 986.1575 109.90875 
Q 988.1575 109.90875 988.1575 107.90875 
L 988.1575 46.99 
Q 988.1575 44.99 986.1575 44.99 
L 712.191875 44.99 
Q 710.191875 44.99 710.191875 46.99 
L 710.191875 107.90875 
Q 710.191875 109.90875 712.191875 109.90875 
z
" style="fill: #ffffff; opacity: 0.9; stroke: #cccccc; stroke-linejoin: miter"/>
    </g>
    <g id="line2d_37">
     <path d="M 714.191875 53.48375 
L 724.191875 53.48375 
L 734.191875 53.48375 
" style="fill: none; stroke: #440154; stroke-opacity: 0.8; stroke-width: 2.5; stroke-linecap: square"/>
    </g>
    <g id="text_18">
     <!-- α = 0.005 (100天后: 0.667) -->
     <g transform="translate(742.191875 56.98375) scale(0.1 -0.1)">
      <defs>
       <path id="MicrosoftYaHei-3b1" d="M 3425 1756 
Q 3550 1034 3676 781 
Q 3803 528 4000 528 
Q 4094 528 4150 550 
L 4150 19 
Q 3947 -31 3806 -31 
Q 3269 -31 3078 934 
L 3066 934 
Q 2575 -81 1684 -81 
Q 1053 -81 675 401 
Q 297 884 297 1628 
Q 297 2469 733 3003 
Q 1169 3538 1909 3538 
Q 2341 3538 2669 3289 
Q 2997 3041 3159 2600 
L 3175 2600 
L 3453 3456 
L 4088 3456 
L 3425 1756 
z
M 2919 1759 
Q 2647 3038 1931 3038 
Q 1466 3038 1194 2638 
Q 922 2238 922 1663 
Q 922 1150 1151 797 
Q 1381 444 1778 444 
Q 2491 444 2869 1609 
L 2919 1759 
z
" transform="scale(0.015625)"/>
       <path id="MicrosoftYaHei-20" transform="scale(0.015625)"/>
       <path id="MicrosoftYaHei-3d" d="M 3972 2497 
L 788 2497 
L 788 2969 
L 3972 2969 
L 3972 2497 
z
M 3972 1053 
L 788 1053 
L 788 1525 
L 3972 1525 
L 3972 1053 
z
" transform="scale(0.015625)"/>
       <path id="MicrosoftYaHei-28" d="M 1531 -1100 
Q 478 100 478 1847 
Q 478 3594 1531 4841 
L 2072 4841 
Q 1016 3544 1016 1853 
Q 1016 166 2066 -1100 
L 1531 -1100 
z
" transform="scale(0.015625)"/>
       <path id="MicrosoftYaHei-5929" d="M 88 -353 
Q 2428 644 2813 2422 
L 169 2422 
L 169 2897 
L 2878 2897 
Q 2906 3341 2906 4428 
L 513 4428 
L 513 4903 
L 5913 4903 
L 5913 4428 
L 3456 4428 
Q 3450 3775 3431 2897 
L 6231 2897 
L 6231 2422 
L 3516 2422 
Q 4113 441 6319 -228 
Q 6063 -534 5888 -747 
Q 3850 75 3206 1969 
Q 2713 206 475 -828 
Q 344 -659 88 -353 
z
" transform="scale(0.015625)"/>
       <path id="MicrosoftYaHei-540e" d="M 1888 1984 
L 5688 1984 
L 5688 -828 
L 5188 -828 
L 5188 -403 
L 2388 -403 
L 2388 -828 
L 1888 -828 
L 1888 1984 
z
M 1313 2991 
Q 1313 1272 1138 672 
Q 963 -16 394 -847 
Q 250 -634 50 -409 
Q 494 222 650 859 
Q 806 1472 806 2659 
L 806 4766 
Q 3544 4853 5631 5141 
L 5931 4622 
Q 3344 4359 1313 4284 
L 1313 3459 
L 6263 3459 
L 6263 2991 
L 1313 2991 
z
M 5188 1528 
L 2388 1528 
L 2388 41 
L 5188 41 
L 5188 1528 
z
" transform="scale(0.015625)"/>
       <path id="MicrosoftYaHei-3a" d="M 372 3134 
Q 372 3303 490 3415 
Q 609 3528 775 3528 
Q 944 3528 1062 3414 
Q 1181 3300 1181 3134 
Q 1181 2969 1065 2853 
Q 950 2738 772 2738 
Q 603 2738 487 2853 
Q 372 2969 372 3134 
z
M 372 322 
Q 372 491 487 606 
Q 603 722 775 722 
Q 950 722 1065 605 
Q 1181 488 1181 322 
Q 1181 159 1065 42 
Q 950 -75 772 -75 
Q 600 -75 486 42 
Q 372 159 372 322 
z
" transform="scale(0.015625)"/>
       <path id="MicrosoftYaHei-29" d="M 78 -1100 
Q 1131 163 1131 1853 
Q 1131 3547 72 4841 
L 616 4841 
Q 1672 3603 1672 1847 
Q 1672 91 616 -1100 
L 78 -1100 
z
" transform="scale(0.015625)"/>
      </defs>
      <use xlink:href="#MicrosoftYaHei-3b1"/>
      <use xlink:href="#MicrosoftYaHei-20" transform="translate(66.601562 0)"/>
      <use xlink:href="#MicrosoftYaHei-3d" transform="translate(96.191406 0)"/>
      <use xlink:href="#MicrosoftYaHei-20" transform="translate(170.361328 0)"/>
      <use xlink:href="#MicrosoftYaHei-30" transform="translate(199.951172 0)"/>
      <use xlink:href="#MicrosoftYaHei-2e" transform="translate(258.59375 0)"/>
      <use xlink:href="#MicrosoftYaHei-30" transform="translate(282.666016 0)"/>
      <use xlink:href="#MicrosoftYaHei-30" transform="translate(341.308594 0)"/>
      <use xlink:href="#MicrosoftYaHei-35" transform="translate(399.951172 0)"/>
      <use xlink:href="#MicrosoftYaHei-20" transform="translate(458.59375 0)"/>
      <use xlink:href="#MicrosoftYaHei-28" transform="translate(488.183594 0)"/>
      <use xlink:href="#MicrosoftYaHei-31" transform="translate(521.582031 0)"/>
      <use xlink:href="#MicrosoftYaHei-30" transform="translate(580.224609 0)"/>
      <use xlink:href="#MicrosoftYaHei-30" transform="translate(638.867188 0)"/>
      <use xlink:href="#MicrosoftYaHei-5929" transform="translate(697.509766 0)"/>
      <use xlink:href="#MicrosoftYaHei-540e" transform="translate(797.509766 0)"/>
      <use xlink:href="#MicrosoftYaHei-3a" transform="translate(897.509766 0)"/>
      <use xlink:href="#MicrosoftYaHei-20" transform="translate(921.582031 0)"/>
      <use xlink:href="#MicrosoftYaHei-30" transform="translate(951.171875 0)"/>
      <use xlink:href="#MicrosoftYaHei-2e" transform="translate(1009.814453 0)"/>
      <use xlink:href="#MicrosoftYaHei-36" transform="translate(1033.886719 0)"/>
      <use xlink:href="#MicrosoftYaHei-36" transform="translate(1092.529297 0)"/>
      <use xlink:href="#MicrosoftYaHei-37" transform="translate(1151.171875 0)"/>
      <use xlink:href="#MicrosoftYaHei-29" transform="translate(1209.814453 0)"/>
     </g>
    </g>
    <g id="line2d_38">
     <path d="M 714.191875 68.963437 
L 724.191875 68.963437 
L 734.191875 68.963437 
" style="fill: none; stroke: #3b528b; stroke-opacity: 0.8; stroke-width: 2.5; stroke-linecap: square"/>
    </g>
    <g id="text_19">
     <!-- α = 0.01 (100天后: 0.500) -->
     <g transform="translate(742.191875 72.463437) scale(0.1 -0.1)">
      <use xlink:href="#MicrosoftYaHei-3b1"/>
      <use xlink:href="#MicrosoftYaHei-20" transform="translate(66.601562 0)"/>
      <use xlink:href="#MicrosoftYaHei-3d" transform="translate(96.191406 0)"/>
      <use xlink:href="#MicrosoftYaHei-20" transform="translate(170.361328 0)"/>
      <use xlink:href="#MicrosoftYaHei-30" transform="translate(199.951172 0)"/>
      <use xlink:href="#MicrosoftYaHei-2e" transform="translate(258.59375 0)"/>
      <use xlink:href="#MicrosoftYaHei-30" transform="translate(282.666016 0)"/>
      <use xlink:href="#MicrosoftYaHei-31" transform="translate(341.308594 0)"/>
      <use xlink:href="#MicrosoftYaHei-20" transform="translate(399.951172 0)"/>
      <use xlink:href="#MicrosoftYaHei-28" transform="translate(429.541016 0)"/>
      <use xlink:href="#MicrosoftYaHei-31" transform="translate(462.939453 0)"/>
      <use xlink:href="#MicrosoftYaHei-30" transform="translate(521.582031 0)"/>
      <use xlink:href="#MicrosoftYaHei-30" transform="translate(580.224609 0)"/>
      <use xlink:href="#MicrosoftYaHei-5929" transform="translate(638.867188 0)"/>
      <use xlink:href="#MicrosoftYaHei-540e" transform="translate(738.867188 0)"/>
      <use xlink:href="#MicrosoftYaHei-3a" transform="translate(838.867188 0)"/>
      <use xlink:href="#MicrosoftYaHei-20" transform="translate(862.939453 0)"/>
      <use xlink:href="#MicrosoftYaHei-30" transform="translate(892.529297 0)"/>
      <use xlink:href="#MicrosoftYaHei-2e" transform="translate(951.171875 0)"/>
      <use xlink:href="#MicrosoftYaHei-35" transform="translate(975.244141 0)"/>
      <use xlink:href="#MicrosoftYaHei-30" transform="translate(1033.886719 0)"/>
      <use xlink:href="#MicrosoftYaHei-30" transform="translate(1092.529297 0)"/>
      <use xlink:href="#MicrosoftYaHei-29" transform="translate(1151.171875 0)"/>
     </g>
    </g>
    <g id="line2d_39">
     <path d="M 714.191875 84.443125 
L 724.191875 84.443125 
L 734.191875 84.443125 
" style="fill: none; stroke: #21918c; stroke-opacity: 0.8; stroke-width: 2.5; stroke-linecap: square"/>
    </g>
    <g id="text_20">
     <!-- α = 0.02 (100天后: 0.333) -->
     <g transform="translate(742.191875 87.943125) scale(0.1 -0.1)">
      <defs>
       <path id="MicrosoftYaHei-33" d="M 447 809 
Q 944 425 1569 425 
Q 2069 425 2361 670 
Q 2653 916 2653 1328 
Q 2653 2247 1338 2247 
L 934 2247 
L 934 2753 
L 1319 2753 
Q 2484 2753 2484 3616 
Q 2484 4413 1594 4413 
Q 1084 4413 634 4069 
L 634 4647 
Q 1109 4922 1744 4922 
Q 2363 4922 2738 4598 
Q 3113 4275 3113 3759 
Q 3113 2809 2144 2538 
L 2144 2525 
Q 2669 2469 2973 2155 
Q 3278 1841 3278 1372 
Q 3278 719 2808 319 
Q 2338 -81 1556 -81 
Q 869 -81 447 175 
L 447 809 
z
" transform="scale(0.015625)"/>
      </defs>
      <use xlink:href="#MicrosoftYaHei-3b1"/>
      <use xlink:href="#MicrosoftYaHei-20" transform="translate(66.601562 0)"/>
      <use xlink:href="#MicrosoftYaHei-3d" transform="translate(96.191406 0)"/>
      <use xlink:href="#MicrosoftYaHei-20" transform="translate(170.361328 0)"/>
      <use xlink:href="#MicrosoftYaHei-30" transform="translate(199.951172 0)"/>
      <use xlink:href="#MicrosoftYaHei-2e" transform="translate(258.59375 0)"/>
      <use xlink:href="#MicrosoftYaHei-30" transform="translate(282.666016 0)"/>
      <use xlink:href="#MicrosoftYaHei-32" transform="translate(341.308594 0)"/>
      <use xlink:href="#MicrosoftYaHei-20" transform="translate(399.951172 0)"/>
      <use xlink:href="#MicrosoftYaHei-28" transform="translate(429.541016 0)"/>
      <use xlink:href="#MicrosoftYaHei-31" transform="translate(462.939453 0)"/>
      <use xlink:href="#MicrosoftYaHei-30" transform="translate(521.582031 0)"/>
      <use xlink:href="#MicrosoftYaHei-30" transform="translate(580.224609 0)"/>
      <use xlink:href="#MicrosoftYaHei-5929" transform="translate(638.867188 0)"/>
      <use xlink:href="#MicrosoftYaHei-540e" transform="translate(738.867188 0)"/>
      <use xlink:href="#MicrosoftYaHei-3a" transform="translate(838.867188 0)"/>
      <use xlink:href="#MicrosoftYaHei-20" transform="translate(862.939453 0)"/>
      <use xlink:href="#MicrosoftYaHei-30" transform="translate(892.529297 0)"/>
      <use xlink:href="#MicrosoftYaHei-2e" transform="translate(951.171875 0)"/>
      <use xlink:href="#MicrosoftYaHei-33" transform="translate(975.244141 0)"/>
      <use xlink:href="#MicrosoftYaHei-33" transform="translate(1033.886719 0)"/>
      <use xlink:href="#MicrosoftYaHei-33" transform="translate(1092.529297 0)"/>
      <use xlink:href="#MicrosoftYaHei-29" transform="translate(1151.171875 0)"/>
     </g>
    </g>
    <g id="line2d_40">
     <path d="M 714.191875 99.922812 
L 724.191875 99.922812 
L 734.191875 99.922812 
" style="fill: none; stroke: #5ec962; stroke-opacity: 0.8; stroke-width: 2.5; stroke-linecap: square"/>
    </g>
    <g id="text_21">
     <!-- α = 0.05 (100天后: 0.167) -->
     <g transform="translate(742.191875 103.422812) scale(0.1 -0.1)">
      <use xlink:href="#MicrosoftYaHei-3b1"/>
      <use xlink:href="#MicrosoftYaHei-20" transform="translate(66.601562 0)"/>
      <use xlink:href="#MicrosoftYaHei-3d" transform="translate(96.191406 0)"/>
      <use xlink:href="#MicrosoftYaHei-20" transform="translate(170.361328 0)"/>
      <use xlink:href="#MicrosoftYaHei-30" transform="translate(199.951172 0)"/>
      <use xlink:href="#MicrosoftYaHei-2e" transform="translate(258.59375 0)"/>
      <use xlink:href="#MicrosoftYaHei-30" transform="translate(282.666016 0)"/>
      <use xlink:href="#MicrosoftYaHei-35" transform="translate(341.308594 0)"/>
      <use xlink:href="#MicrosoftYaHei-20" transform="translate(399.951172 0)"/>
      <use xlink:href="#MicrosoftYaHei-28" transform="translate(429.541016 0)"/>
      <use xlink:href="#MicrosoftYaHei-31" transform="translate(462.939453 0)"/>
      <use xlink:href="#MicrosoftYaHei-30" transform="translate(521.582031 0)"/>
      <use xlink:href="#MicrosoftYaHei-30" transform="translate(580.224609 0)"/>
      <use xlink:href="#MicrosoftYaHei-5929" transform="translate(638.867188 0)"/>
      <use xlink:href="#MicrosoftYaHei-540e" transform="translate(738.867188 0)"/>
      <use xlink:href="#MicrosoftYaHei-3a" transform="translate(838.867188 0)"/>
      <use xlink:href="#MicrosoftYaHei-20" transform="translate(862.939453 0)"/>
      <use xlink:href="#MicrosoftYaHei-30" transform="translate(892.529297 0)"/>
      <use xlink:href="#MicrosoftYaHei-2e" transform="translate(951.171875 0)"/>
      <use xlink:href="#MicrosoftYaHei-31" transform="translate(975.244141 0)"/>
      <use xlink:href="#MicrosoftYaHei-36" transform="translate(1033.886719 0)"/>
      <use xlink:href="#MicrosoftYaHei-37" transform="translate(1092.529297 0)"/>
      <use xlink:href="#MicrosoftYaHei-29" transform="translate(1151.171875 0)"/>
     </g>
    </g>
    <g id="line2d_41">
     <path d="M 886.516875 53.48375 
L 896.516875 53.48375 
L 906.516875 53.48375 
" style="fill: none; stroke-dasharray: 5.55,2.4; stroke-dashoffset: 0; stroke: #2e7d32; stroke-opacity: 0.5; stroke-width: 1.5"/>
    </g>
    <g id="text_22">
     <!-- 完整阈值 (0.7) -->
     <g transform="translate(914.516875 56.98375) scale(0.1 -0.1)">
      <defs>
       <path id="MicrosoftYaHei-5b8c" d="M 275 1959 
L 6150 1959 
L 6150 1516 
L 4131 1516 
L 4131 191 
Q 4131 -222 4538 -222 
L 5200 -222 
Q 5625 -222 5675 65 
Q 5725 353 5744 884 
Q 5969 797 6294 697 
Q 6250 184 6181 -141 
Q 6094 -678 5425 -678 
L 4406 -678 
Q 3625 -678 3625 122 
L 3625 1516 
L 2503 1516 
Q 2488 -247 438 -834 
Q 313 -628 125 -372 
Q 1975 78 2006 1516 
L 275 1516 
L 275 1959 
z
M 325 4534 
L 3000 4534 
Q 2878 4788 2688 5128 
L 3175 5353 
Q 3422 4878 3575 4534 
L 6075 4534 
L 6075 3384 
L 5563 3384 
L 5563 4091 
L 838 4091 
L 838 3384 
L 325 3384 
L 325 4534 
z
M 1050 3253 
L 5450 3253 
L 5450 2816 
L 1050 2816 
L 1050 3253 
z
" transform="scale(0.015625)"/>
       <path id="MicrosoftYaHei-6574" d="M 138 -234 
L 1263 -234 
L 1263 891 
L 1713 891 
L 1713 -234 
L 3025 -234 
L 3025 1178 
L 550 1178 
L 550 1578 
L 5800 1578 
L 5800 1178 
L 3475 1178 
L 3475 697 
L 5525 697 
L 5525 297 
L 3475 297 
L 3475 -234 
L 6256 -234 
L 6256 -634 
L 138 -634 
L 138 -234 
z
M 25 2003 
Q 825 2334 1481 2916 
L 913 2916 
L 913 2759 
L 506 2759 
L 506 4109 
L 1650 4109 
L 1650 4491 
L 250 4491 
L 250 4866 
L 1650 4866 
L 1650 5291 
L 2069 5291 
L 2069 4866 
L 3425 4866 
L 3425 4491 
L 2069 4491 
L 2069 4109 
L 3213 4109 
L 3213 2759 
L 2806 2759 
L 2806 2916 
L 2069 2916 
L 2069 2541 
L 2225 2747 
Q 2781 2484 3288 2216 
L 3075 1872 
Q 2550 2184 2069 2397 
L 2069 1722 
L 1650 1722 
L 1650 2647 
Q 1075 2078 288 1647 
Q 175 1803 25 2003 
z
M 3363 2078 
Q 4050 2341 4519 2716 
Q 4144 3134 3938 3716 
Q 3788 3447 3631 3197 
L 3256 3459 
Q 3850 4253 4163 5322 
L 4600 5191 
Q 4481 4872 4356 4572 
L 6263 4572 
L 6263 4172 
L 5850 4172 
Q 5644 3316 5181 2741 
Q 5638 2428 6325 2247 
Q 6169 2047 6013 1778 
Q 5319 2034 4844 2403 
Q 4363 1984 3650 1678 
Q 3525 1859 3363 2078 
z
M 5400 4172 
L 4219 4172 
Q 4394 3484 4838 3022 
Q 5244 3503 5400 4172 
z
M 2806 3266 
L 2806 3759 
L 2069 3759 
L 2069 3266 
L 2806 3266 
z
M 913 3266 
L 1650 3266 
L 1650 3759 
L 913 3759 
L 913 3266 
z
" transform="scale(0.015625)"/>
       <path id="MicrosoftYaHei-9608" d="M 3163 703 
Q 3475 947 3731 1234 
Q 3500 1984 3419 3141 
L 1225 3141 
L 1225 3541 
L 3394 3541 
Q 3381 3891 3381 4284 
L 3813 4284 
Q 3819 3891 3838 3541 
L 5313 3541 
L 5313 3141 
L 3856 3141 
Q 3925 2266 4075 1659 
Q 4425 2153 4650 2753 
L 5075 2572 
Q 4725 1791 4231 1166 
Q 4344 872 4488 678 
Q 4706 434 4763 691 
Q 4819 984 4844 1266 
Q 5088 1159 5269 1122 
Q 5194 584 5131 316 
Q 5038 -59 4819 -59 
Q 4469 -59 4106 434 
Q 3994 584 3906 784 
Q 3656 516 3381 284 
Q 3281 528 3163 703 
z
M 2425 4491 
L 2425 4916 
L 5988 4916 
L 5988 -3 
Q 5988 -766 5181 -766 
Q 4819 -766 4356 -753 
Q 4300 -403 4256 -284 
Q 4769 -322 5088 -322 
Q 5544 -322 5544 97 
L 5544 4491 
L 2425 4491 
z
M 1425 2609 
L 3106 2609 
L 3106 909 
L 2700 909 
L 2700 1134 
L 1831 1134 
L 1831 847 
L 1425 847 
L 1425 2609 
z
M 431 4084 
L 875 4084 
L 875 -816 
L 431 -816 
L 431 4084 
z
M 1119 378 
Q 2169 466 3200 578 
Q 3206 347 3213 153 
Q 2256 59 1181 -47 
L 1119 378 
z
M 2700 2234 
L 1831 2234 
L 1831 1509 
L 2700 1509 
L 2700 2234 
z
M 800 4984 
L 1119 5278 
Q 1563 4872 1975 4422 
L 1613 4091 
Q 1213 4566 800 4984 
z
M 4038 4141 
L 4269 4428 
Q 4619 4184 4931 3934 
L 4663 3616 
Q 4444 3809 4038 4141 
z
" transform="scale(0.015625)"/>
       <path id="MicrosoftYaHei-503c" d="M 1619 -216 
L 2250 -216 
L 2250 3653 
L 3725 3653 
L 3725 4222 
L 1913 4222 
L 1913 4647 
L 3725 4647 
L 3725 5309 
L 4200 5309 
L 4200 4647 
L 6169 4647 
L 6169 4222 
L 4200 4222 
L 4200 3653 
L 5713 3653 
L 5713 -216 
L 6306 -216 
L 6306 -641 
L 1619 -641 
L 1619 -216 
z
M 69 2247 
Q 906 3497 1369 5278 
L 1831 5141 
Q 1581 4334 1288 3628 
L 1288 -816 
L 831 -816 
L 831 2666 
Q 563 2166 263 1734 
Q 175 1997 69 2247 
z
M 2713 -216 
L 5250 -216 
L 5250 353 
L 2713 353 
L 2713 -216 
z
M 5250 3241 
L 2713 3241 
L 2713 2678 
L 5250 2678 
L 5250 3241 
z
M 2713 1716 
L 5250 1716 
L 5250 2278 
L 2713 2278 
L 2713 1716 
z
M 2713 753 
L 5250 753 
L 5250 1316 
L 2713 1316 
L 2713 753 
z
" transform="scale(0.015625)"/>
      </defs>
      <use xlink:href="#MicrosoftYaHei-5b8c"/>
      <use xlink:href="#MicrosoftYaHei-6574" transform="translate(100 0)"/>
      <use xlink:href="#MicrosoftYaHei-9608" transform="translate(200 0)"/>
      <use xlink:href="#MicrosoftYaHei-503c" transform="translate(300 0)"/>
      <use xlink:href="#MicrosoftYaHei-20" transform="translate(400 0)"/>
      <use xlink:href="#MicrosoftYaHei-28" transform="translate(429.589844 0)"/>
      <use xlink:href="#MicrosoftYaHei-30" transform="translate(462.988281 0)"/>
      <use xlink:href="#MicrosoftYaHei-2e" transform="translate(521.630859 0)"/>
      <use xlink:href="#MicrosoftYaHei-37" transform="translate(545.703125 0)"/>
      <use xlink:href="#MicrosoftYaHei-29" transform="translate(604.345703 0)"/>
     </g>
    </g>
    <g id="line2d_42">
     <path d="M 886.516875 68.963437 
L 896.516875 68.963437 
L 906.516875 68.963437 
" style="fill: none; stroke-dasharray: 5.55,2.4; stroke-dashoffset: 0; stroke: #66bb6a; stroke-opacity: 0.5; stroke-width: 1.5"/>
    </g>
    <g id="text_23">
     <!-- 摘要阈值 (0.3) -->
     <g transform="translate(914.516875 72.463437) scale(0.1 -0.1)">
      <defs>
       <path id="MicrosoftYaHei-6458" d="M 2213 3347 
L 3297 3347 
Q 3103 3631 2863 3953 
L 3203 4184 
L 2069 4184 
L 2069 4597 
L 3981 4597 
Q 3853 4850 3663 5159 
L 4088 5359 
Q 4319 4984 4450 4728 
L 4175 4597 
L 6231 4597 
L 6231 4184 
L 4906 4184 
L 5319 3978 
Q 5094 3666 4847 3347 
L 6006 3347 
L 6006 -34 
Q 6006 -741 5281 -741 
Q 4975 -741 4619 -728 
Q 4588 -491 4519 -234 
Q 4931 -291 5256 -291 
Q 5556 -291 5556 41 
L 5556 2972 
L 2663 2972 
L 2663 -809 
L 2213 -809 
L 2213 3347 
z
M 100 1966 
Q 547 2088 938 2203 
L 938 3641 
L 175 3641 
L 175 4091 
L 938 4091 
L 938 5259 
L 1400 5259 
L 1400 4091 
L 2038 4091 
L 2038 3641 
L 1400 3641 
L 1400 2341 
Q 1719 2441 1994 2534 
Q 2000 2253 2031 2047 
Q 1694 1938 1400 1844 
L 1400 -47 
Q 1400 -703 900 -741 
Q 631 -753 206 -747 
Q 181 -491 131 -228 
Q 513 -266 688 -266 
Q 938 -266 938 41 
L 938 1691 
Q 481 1541 163 1428 
L 100 1966 
z
M 3131 1516 
L 3888 1516 
L 3888 2028 
L 2925 2028 
L 2925 2391 
L 3888 2391 
L 3888 2816 
L 4313 2816 
L 4313 2391 
L 5275 2391 
L 5275 2028 
L 4313 2028 
L 4313 1516 
L 5069 1516 
L 5069 166 
L 3544 166 
L 3544 -28 
L 3131 -28 
L 3131 1516 
z
M 3713 3547 
L 3425 3347 
L 4375 3347 
Q 4641 3747 4875 4184 
L 3216 4184 
Q 3472 3881 3713 3547 
z
M 4656 528 
L 4656 1153 
L 3544 1153 
L 3544 528 
L 4656 528 
z
" transform="scale(0.015625)"/>
       <path id="MicrosoftYaHei-8981" d="M 613 3978 
L 2181 3978 
L 2181 4659 
L 313 4659 
L 313 5084 
L 6088 5084 
L 6088 4659 
L 4213 4659 
L 4213 3978 
L 5781 3978 
L 5781 2116 
L 5319 2116 
L 5319 2353 
L 1075 2353 
L 1075 2116 
L 613 2116 
L 613 3978 
z
M 94 1741 
L 1959 1741 
Q 2150 2038 2319 2341 
L 2800 2147 
Q 2663 1941 2528 1741 
L 6300 1741 
L 6300 1316 
L 4856 1316 
Q 4497 681 3925 247 
Q 4853 -31 5875 -347 
L 5600 -834 
Q 4550 -469 3394 -81 
Q 2300 -650 531 -872 
Q 419 -641 288 -391 
Q 1809 -253 2750 134 
Q 1991 388 1188 653 
Q 1447 981 1675 1316 
L 94 1316 
L 94 1741 
z
M 1900 853 
Q 2584 650 3328 428 
Q 3938 797 4269 1316 
L 2231 1316 
Q 2066 1078 1900 853 
z
M 2644 2753 
L 3750 2753 
L 3750 3578 
L 2644 3578 
L 2644 2753 
z
M 5319 3578 
L 4213 3578 
L 4213 2753 
L 5319 2753 
L 5319 3578 
z
M 1075 2753 
L 2181 2753 
L 2181 3578 
L 1075 3578 
L 1075 2753 
z
M 2644 3978 
L 3750 3978 
L 3750 4659 
L 2644 4659 
L 2644 3978 
z
" transform="scale(0.015625)"/>
      </defs>
      <use xlink:href="#MicrosoftYaHei-6458"/>
      <use xlink:href="#MicrosoftYaHei-8981" transform="translate(100 0)"/>
      <use xlink:href="#MicrosoftYaHei-9608" transform="translate(200 0)"/>
      <use xlink:href="#MicrosoftYaHei-503c" transform="translate(300 0)"/>
      <use xlink:href="#MicrosoftYaHei-20" transform="translate(400 0)"/>
      <use xlink:href="#MicrosoftYaHei-28" transform="translate(429.589844 0)"/>
      <use xlink:href="#MicrosoftYaHei-30" transform="translate(462.988281 0)"/>
      <use xlink:href="#MicrosoftYaHei-2e" transform="translate(521.630859 0)"/>
      <use xlink:href="#MicrosoftYaHei-33" transform="translate(545.703125 0)"/>
      <use xlink:href="#MicrosoftYaHei-29" transform="translate(604.345703 0)"/>
     </g>
    </g>
    <g id="line2d_43">
     <path d="M 886.516875 84.443125 
L 896.516875 84.443125 
L 906.516875 84.443125 
" style="fill: none; stroke-dasharray: 5.55,2.4; stroke-dashoffset: 0; stroke: #ffa726; stroke-opacity: 0.5; stroke-width: 1.5"/>
    </g>
    <g id="text_24">
     <!-- 标签阈值 (0.1) -->
     <g transform="translate(914.516875 87.943125) scale(0.1 -0.1)">
      <defs>
       <path id="MicrosoftYaHei-6807" d="M 75 1409 
Q 769 2478 1025 3647 
L 119 3647 
L 119 4072 
L 1069 4072 
L 1069 5297 
L 1506 5297 
L 1506 4072 
L 2356 4072 
L 2356 3647 
L 1506 3647 
L 1506 2541 
L 1775 2822 
Q 2175 2478 2481 2159 
L 2150 1816 
Q 1850 2156 1506 2503 
L 1506 -797 
L 1069 -797 
L 1069 2588 
Q 738 1513 281 859 
Q 194 1128 75 1409 
z
M 2350 3097 
L 6250 3097 
L 6250 2659 
L 4525 2659 
L 4525 47 
Q 4525 -734 3806 -734 
Q 3469 -741 2975 -728 
Q 2944 -503 2888 -209 
Q 3319 -259 3675 -259 
Q 4050 -259 4050 203 
L 4050 2659 
L 2350 2659 
L 2350 3097 
z
M 2638 4928 
L 5963 4928 
L 5963 4491 
L 2638 4491 
L 2638 4928 
z
M 4938 1853 
L 5381 2066 
Q 5975 928 6369 72 
L 5869 -147 
Q 5463 822 4938 1853 
z
M 2931 2066 
L 3400 1878 
Q 2888 734 2381 -153 
Q 2188 -41 1925 66 
Q 2425 872 2931 2066 
z
" transform="scale(0.015625)"/>
       <path id="MicrosoftYaHei-7b7e" d="M 3644 3834 
L 3531 3697 
Q 4644 2547 6319 2122 
Q 6125 1859 5981 1622 
Q 5275 1866 4663 2228 
L 4663 1897 
L 1744 1897 
L 1744 2259 
Q 1113 1878 375 1541 
Q 219 1791 63 1972 
Q 1856 2678 3031 3834 
L 3644 3834 
z
M 338 -116 
L 4019 -116 
Q 4556 784 4913 1603 
L 5388 1353 
Q 4956 597 4525 -116 
L 6075 -116 
L 6075 -559 
L 338 -559 
L 338 -116 
z
M 1294 5322 
L 1831 5322 
Q 1675 5009 1513 4728 
L 3325 4728 
L 3325 4309 
L 1256 4309 
Q 850 3697 394 3259 
Q 256 3441 75 3628 
Q 806 4316 1294 5322 
z
M 4019 5322 
L 4538 5322 
Q 4400 5009 4250 4728 
L 6250 4728 
L 6250 4309 
L 4006 4309 
Q 3838 4047 3694 3853 
Q 3463 3984 3244 4078 
Q 3706 4597 4019 5322 
z
M 3219 3372 
Q 2619 2809 1838 2322 
L 4506 2322 
Q 3794 2766 3219 3372 
z
M 963 1291 
L 1363 1497 
Q 1738 884 2044 234 
L 1619 -3 
Q 1325 672 963 1291 
z
M 2744 1584 
L 3175 1703 
Q 3419 1022 3600 322 
L 3138 184 
Q 2963 959 2744 1584 
z
M 5031 3153 
Q 4756 3466 4331 3847 
L 4631 4134 
Q 5050 3784 5363 3472 
L 5031 3153 
z
M 1925 3241 
Q 1663 3584 1394 3897 
L 1719 4141 
Q 2000 3872 2294 3534 
L 1925 3241 
z
" transform="scale(0.015625)"/>
      </defs>
      <use xlink:href="#MicrosoftYaHei-6807"/>
      <use xlink:href="#MicrosoftYaHei-7b7e" transform="translate(100 0)"/>
      <use xlink:href="#MicrosoftYaHei-9608" transform="translate(200 0)"/>
      <use xlink:href="#MicrosoftYaHei-503c" transform="translate(300 0)"/>
      <use xlink:href="#MicrosoftYaHei-20" transform="translate(400 0)"/>
      <use xlink:href="#MicrosoftYaHei-28" transform="translate(429.589844 0)"/>
      <use xlink:href="#MicrosoftYaHei-30" transform="translate(462.988281 0)"/>
      <use xlink:href="#MicrosoftYaHei-2e" transform="translate(521.630859 0)"/>
      <use xlink:href="#MicrosoftYaHei-31" transform="translate(545.703125 0)"/>
      <use xlink:href="#MicrosoftYaHei-29" transform="translate(604.345703 0)"/>
     </g>
    </g>
    <g id="line2d_44">
     <path d="M 886.516875 99.922812 
L 896.516875 99.922812 
L 906.516875 99.922812 
" style="fill: none; stroke-dasharray: 5.55,2.4; stroke-dashoffset: 0; stroke: #ef5350; stroke-opacity: 0.5; stroke-width: 1.5"/>
    </g>
    <g id="text_25">
     <!-- 痕迹阈值 (0.03) -->
     <g transform="translate(914.516875 103.422812) scale(0.1 -0.1)">
      <defs>
       <path id="MicrosoftYaHei-75d5" d="M 5794 1309 
L 6100 916 
Q 5534 631 4784 266 
Q 5422 -113 6325 -253 
Q 6138 -534 6006 -734 
Q 4041 -319 3228 1403 
L 2525 1403 
L 2525 -91 
Q 3075 84 3763 347 
Q 3763 147 3769 -147 
Q 3100 -372 2531 -578 
Q 2338 -653 2138 -759 
L 1888 -303 
Q 2063 -178 2063 53 
L 2063 3741 
L 5650 3741 
L 5650 1403 
L 3694 1403 
Q 3969 888 4409 528 
Q 5109 891 5794 1309 
z
M 3094 5109 
L 3506 5347 
Q 3759 5009 3953 4716 
L 6238 4716 
L 6238 4278 
L 1475 4278 
L 1475 2384 
Q 1475 234 600 -853 
Q 456 -647 256 -441 
Q 866 303 984 1634 
Q 613 1400 213 1153 
L 94 1678 
Q 581 1909 1013 2169 
L 1013 4716 
L 3366 4716 
Q 3234 4916 3094 5109 
z
M 5194 3316 
L 2525 3316 
L 2525 2791 
L 5194 2791 
L 5194 3316 
z
M 5194 1834 
L 5194 2359 
L 2525 2359 
L 2525 1834 
L 5194 1834 
z
M 119 3803 
L 494 3947 
Q 719 3447 956 2753 
L 538 2597 
Q 344 3253 119 3803 
z
" transform="scale(0.015625)"/>
       <path id="MicrosoftYaHei-8ff9" d="M 1950 4422 
L 3963 4422 
Q 3772 4772 3519 5109 
L 3919 5353 
Q 4200 5003 4425 4641 
L 4059 4422 
L 6150 4422 
L 6150 3966 
L 4938 3966 
L 4938 959 
Q 4938 203 4175 159 
Q 3888 147 3419 147 
Q 3388 391 3325 666 
Q 3700 634 4056 634 
Q 4488 634 4488 1122 
L 4488 3966 
L 3569 3966 
L 3569 2797 
Q 3569 853 2438 -16 
Q 2281 197 2113 372 
Q 3119 1172 3119 2791 
L 3119 3966 
L 1950 3966 
L 1950 4422 
z
M 2903 -228 
L 4163 -253 
L 6319 -191 
Q 6213 -441 6113 -672 
L 4159 -703 
L 2763 -672 
Q 1575 -641 1088 47 
Q 806 -216 356 -753 
L 88 -222 
Q 559 197 863 459 
L 863 2641 
L 150 2641 
L 150 3097 
L 1325 3097 
L 1325 397 
Q 1778 -200 2903 -228 
z
M 5194 2853 
L 5638 3053 
Q 6056 2153 6300 1478 
L 5844 1284 
Q 5550 2134 5194 2853 
z
M 2269 3047 
L 2725 2884 
Q 2413 2141 2013 1328 
Q 1981 1341 1550 1528 
Q 1956 2247 2269 3047 
z
M 769 5272 
Q 1281 4591 1656 4009 
L 1225 3703 
Q 850 4341 369 5009 
L 769 5272 
z
" transform="scale(0.015625)"/>
      </defs>
      <use xlink:href="#MicrosoftYaHei-75d5"/>
      <use xlink:href="#MicrosoftYaHei-8ff9" transform="translate(100 0)"/>
      <use xlink:href="#MicrosoftYaHei-9608" transform="translate(200 0)"/>
      <use xlink:href="#MicrosoftYaHei-503c" transform="translate(300 0)"/>
      <use xlink:href="#MicrosoftYaHei-20" transform="translate(400 0)"/>
      <use xlink:href="#MicrosoftYaHei-28" transform="translate(429.589844 0)"/>
      <use xlink:href="#MicrosoftYaHei-30" transform="translate(462.988281 0)"/>
      <use xlink:href="#MicrosoftYaHei-2e" transform="translate(521.630859 0)"/>
      <use xlink:href="#MicrosoftYaHei-30" transform="translate(545.703125 0)"/>
      <use xlink:href="#MicrosoftYaHei-33" transform="translate(604.345703 0)"/>
      <use xlink:href="#MicrosoftYaHei-29" transform="translate(662.988281 0)"/>
     </g>
    </g>
   </g>
  </g>
 </g>
 <defs>
  <clipPath id="pa99e1d1863">
   <rect x="47.0075" y="39.99" width="946.15" height="484.32875"/>
  </clipPath>
 </defs>
</svg>
